<svg version="1.1" xmlns="http://www.w3.org/2000/svg" viewBox="0 0 571.4487317701822 623.3538648539766" width="571.4487317701822" height="623.3538648539766">
  <!-- svg-source:excalidraw -->
  
  <defs>
    <style class="style-fonts">
      @font-face {
        font-family: "Virgil";
        src: url("https://excalidraw.com/Virgil.woff2");
      }
      @font-face {
        font-family: "Cascadia";
        src: url("https://excalidraw.com/Cascadia.woff2");
      }
      @font-face {
        font-family: "Assistant";
        src: url("https://excalidraw.com/Assistant-Regular.woff2");
      }
    </style>
    
  </defs>
  <rect x="0" y="0" width="571.4487317701822" height="623.3538648539766" fill="#ffffff"></rect><g stroke-linecap="round" transform="translate(322.9309857868851 46.695602942509424) rotate(0 118.7196388586492 193.78612099779744)"><path d="M-1.05 -0.42 L236.76 -0.09 L238.25 388.69 L0.26 386.06" stroke="none" stroke-width="0" fill="#b2f2bb"></path><path d="M0 0 C85.94 -0.77, 168.59 -0.22, 237.44 0 M0 0 C81.02 1.27, 163.68 0.38, 237.44 0 M237.44 0 C235.44 139.62, 234.39 277.73, 237.44 387.57 M237.44 0 C239 136.07, 238.39 272.83, 237.44 387.57 M237.44 387.57 C170.97 390.83, 104.17 388.58, 0 387.57 M237.44 387.57 C173.81 389.31, 108.58 389.81, 0 387.57 M0 387.57 C-0.84 244.3, -1.96 102.72, 0 0 M0 387.57 C-0.63 253.86, -1.19 120.64, 0 0" stroke="transparent" stroke-width="2" fill="none"></path></g><g stroke-linecap="round" transform="translate(322.03455799046276 10) rotate(0 119.70708688985974 212.16493502688581)"><path d="M0 0 C78.41 -0.73, 157.01 -3.16, 239.41 0 M0 0 C94.12 1.45, 189 1.22, 239.41 0 M239.41 0 C239.9 109.77, 238.94 218.85, 239.41 424.33 M239.41 0 C239.34 110.11, 238.57 220.47, 239.41 424.33 M239.41 424.33 C178.84 427.29, 120.51 426.04, 0 424.33 M239.41 424.33 C154.78 426.38, 70.77 426.6, 0 424.33 M0 424.33 C2.06 305.81, 1.01 185.2, 0 0 M0 424.33 C1.07 339.19, 1.48 253.2, 0 0" stroke="#1e1e1e" stroke-width="2" fill="none"></path></g><g stroke-linecap="round" transform="translate(321.9451002607732 11.262564988455921) rotate(0 119.48931252238748 17.098834492931516)"><path d="M0 0 C91.61 -2.62, 185.99 -0.11, 238.98 0 M0 0 C47.85 0.5, 95.6 1.32, 238.98 0 M238.98 0 C237.95 9.48, 238.28 18.39, 238.98 34.2 M238.98 0 C238.37 8.01, 238.7 14.16, 238.98 34.2 M238.98 34.2 C150.05 36.08, 59.77 34.24, 0 34.2 M238.98 34.2 C145.06 34.97, 50.24 33.84, 0 34.2 M0 34.2 C-1.87 24.43, -1.99 13.73, 0 0 M0 34.2 C0.65 26.62, 0.52 18.39, 0 0" stroke="#1e1e1e" stroke-width="2" fill="none"></path></g><g stroke-linecap="round"><g transform="translate(349.07799372040984 27.497359944090306) rotate(0 -8.69478355120657 -0.1812652541211861)"><path d="M0 0 C-5.42 0.35, -13.35 -0.8, -17.39 -0.36 M0 0 C-4.29 -0.14, -8.33 -0.1, -17.39 -0.36" stroke="#1e1e1e" stroke-width="2" fill="none"></path></g><g transform="translate(349.07799372040984 27.497359944090306) rotate(0 -8.69478355120657 -0.1812652541211861)"><path d="M-9.15 -3.14 C-11.7 -1.9, -15.5 -1.41, -17.39 -0.36 M-9.15 -3.14 C-11.19 -2.51, -13.1 -1.79, -17.39 -0.36" stroke="#1e1e1e" stroke-width="2" fill="none"></path></g><g transform="translate(349.07799372040984 27.497359944090306) rotate(0 -8.69478355120657 -0.1812652541211861)"><path d="M-9.29 2.81 C-11.78 1.91, -15.53 0.26, -17.39 -0.36 M-9.29 2.81 C-11.29 2.03, -13.17 1.34, -17.39 -0.36" stroke="#1e1e1e" stroke-width="2" fill="none"></path></g></g><mask></mask><g stroke-linecap="round" transform="translate(359.46440403811255 14.223809258370153) rotate(0 14.22264820584195 13.316135672889985)"><path d="M11.87 -0.09 C14.78 -0.63, 19.19 0.35, 21.86 1.94 C24.54 3.53, 27.08 6.71, 27.95 9.46 C28.82 12.2, 28.31 15.81, 27.09 18.41 C25.87 21, 23.34 23.65, 20.62 25.02 C17.9 26.39, 13.72 27.3, 10.78 26.64 C7.84 25.97, 4.72 23.39, 2.96 21.03 C1.21 18.68, 0.2 15.24, 0.25 12.52 C0.3 9.8, 1.23 6.73, 3.26 4.73 C5.28 2.73, 10.76 1.24, 12.41 0.52 C14.07 -0.21, 13.09 0.32, 13.19 0.38 M17.89 0.71 C20.75 1.05, 23.79 2.49, 25.53 4.74 C27.26 6.98, 28.34 11.35, 28.3 14.19 C28.25 17.04, 27.35 19.86, 25.27 21.8 C23.18 23.73, 19.01 25.47, 15.8 25.81 C12.58 26.15, 8.53 25.19, 5.97 23.84 C3.41 22.5, 1.16 20.36, 0.43 17.73 C-0.29 15.1, 0.32 10.84, 1.62 8.05 C2.92 5.27, 5.47 2.37, 8.22 1.02 C10.97 -0.33, 16.67 0.11, 18.11 -0.06 C19.55 -0.22, 17.08 -0.32, 16.88 0.03" stroke="#1e1e1e" stroke-width="2" fill="none"></path></g><g transform="translate(398.44367194496715 19.177122065585422) rotate(0 45.75996398925781 10)"><text x="0" y="14.016" font-family="Virgil, Segoe UI Emoji" font-size="16px" fill="#1e1e1e" text-anchor="start" style="white-space: pre;" direction="ltr" dominant-baseline="alphabetic">VlandivirBot</text></g><g stroke-linecap="round" transform="translate(329.06820539773514 401.6384463625657) rotate(0 95.7656304473769 13.290733460747617)"><path d="M-0.41 -0.59 L193.09 0.97 L190.23 24.6 L1.93 27.18" stroke="none" stroke-width="0" fill="#ffffff"></path><path d="M0 0 C45.41 -0.54, 94.61 -0.21, 191.53 0 M0 0 C63.98 0.69, 127.69 0.3, 191.53 0 M191.53 0 C192.48 8.67, 189.7 20.84, 191.53 26.58 M191.53 0 C191.86 7.6, 190.76 15.09, 191.53 26.58 M191.53 26.58 C137.85 27.08, 80.57 27.13, 0 26.58 M191.53 26.58 C132.67 23.83, 73.35 24.05, 0 26.58 M0 26.58 C-0.07 20.03, -1.23 13.18, 0 0 M0 26.58 C-0.22 20.59, -0.35 14.22, 0 0" stroke="#1e1e1e" stroke-width="2" fill="none"></path></g><g stroke-linecap="round" transform="translate(524.3440258138465 397.089075678035) rotate(0 17.328071210277585 16.423439941923732)"><path d="M21.26 0.42 C24.69 1.06, 28.9 3.84, 31.13 6.66 C33.35 9.48, 34.79 13.76, 34.61 17.32 C34.42 20.88, 32.59 25.41, 30.03 28.01 C27.47 30.6, 22.87 32.59, 19.23 32.9 C15.59 33.2, 11.33 31.77, 8.17 29.82 C5.01 27.86, 1.37 24.44, 0.26 21.17 C-0.86 17.9, -0.07 13.42, 1.48 10.19 C3.03 6.97, 6.13 3.5, 9.55 1.83 C12.98 0.15, 19.96 0.23, 22.01 0.15 C24.06 0.07, 21.99 0.94, 21.85 1.33 M19.94 0.63 C23.5 0.9, 28.32 2.69, 30.85 5.21 C33.38 7.74, 35.01 12.13, 35.13 15.79 C35.25 19.45, 33.82 24.41, 31.58 27.19 C29.35 29.97, 25.53 31.88, 21.73 32.48 C17.93 33.07, 12.2 32.51, 8.78 30.77 C5.37 29.04, 2.53 25.39, 1.23 22.07 C-0.06 18.74, -0.04 14.14, 1.02 10.84 C2.08 7.55, 4.58 3.96, 7.57 2.28 C10.56 0.59, 16.94 0.96, 18.96 0.74 C20.99 0.52, 19.69 0.75, 19.72 0.95" stroke="none" stroke-width="0" fill="#a5d8ff"></path><path d="M15.92 0.06 C19.37 -0.41, 24.41 0.96, 27.38 3.1 C30.36 5.23, 32.85 9.49, 33.77 12.85 C34.68 16.22, 34.41 20.23, 32.87 23.29 C31.33 26.35, 28.01 29.67, 24.53 31.22 C21.05 32.76, 15.64 33.45, 12.01 32.57 C8.37 31.69, 4.67 28.94, 2.74 25.96 C0.81 22.98, -0.04 18.33, 0.44 14.67 C0.92 11.02, 2.81 6.51, 5.62 4.05 C8.43 1.59, 15.3 0.52, 17.28 -0.07 C19.27 -0.65, 17.54 0.28, 17.51 0.55 M14.24 -0.29 C17.65 -1.36, 22.13 -0.54, 25.24 1.09 C28.36 2.72, 31.5 6.03, 32.92 9.5 C34.33 12.98, 34.69 18.47, 33.73 21.94 C32.76 25.41, 30.18 28.56, 27.13 30.3 C24.09 32.03, 19.14 32.87, 15.47 32.34 C11.81 31.81, 7.84 29.76, 5.16 27.14 C2.48 24.52, -0.27 19.99, -0.59 16.6 C-0.92 13.22, 0.93 9.46, 3.21 6.83 C5.49 4.2, 11.38 1.87, 13.08 0.81 C14.79 -0.24, 13.2 0.24, 13.43 0.5" stroke="transparent" stroke-width="2" fill="none"></path></g><g stroke-opacity="0" fill-opacity="0" stroke-linecap="round" transform="translate(527.6490491666476 402.21726045994) rotate(0 14.685479158985345 14.685479158985345)"><path d="M11.92 0.16 C14.86 -0.58, 19.2 0.14, 22 1.75 C24.79 3.37, 27.59 6.83, 28.68 9.85 C29.77 12.86, 29.56 16.95, 28.54 19.83 C27.51 22.71, 25.34 25.56, 22.54 27.14 C19.74 28.73, 14.91 29.76, 11.73 29.33 C8.55 28.89, 5.43 26.96, 3.46 24.55 C1.48 22.14, -0.17 18.13, -0.13 14.85 C-0.1 11.57, 1.49 7.26, 3.66 4.87 C5.83 2.47, 11.21 1.19, 12.9 0.49 C14.59 -0.22, 13.73 0.42, 13.82 0.65 M13.6 -0.05 C16.57 -0.68, 20.56 0.53, 23.17 2.39 C25.78 4.25, 28.32 8.1, 29.28 11.11 C30.23 14.12, 30.32 17.68, 28.92 20.43 C27.52 23.17, 23.8 26.25, 20.87 27.58 C17.94 28.91, 14.27 29.18, 11.32 28.41 C8.37 27.64, 5.12 25.4, 3.16 22.94 C1.19 20.48, -0.5 16.6, -0.48 13.66 C-0.46 10.71, 1 7.44, 3.25 5.26 C5.5 3.08, 11.44 1.37, 13 0.58 C14.56 -0.2, 12.53 0.28, 12.6 0.55" stroke="none" stroke-width="0" fill="#ffffff"></path><path d="M15.76 -0.04 C18.74 0.09, 22.41 2.45, 24.67 4.62 C26.93 6.79, 28.94 9.95, 29.32 12.99 C29.7 16.03, 28.83 20.15, 26.95 22.86 C25.07 25.57, 21.14 28.33, 18.03 29.25 C14.92 30.18, 11.03 29.81, 8.31 28.42 C5.59 27.04, 2.97 23.95, 1.71 20.94 C0.45 17.94, -0.07 13.45, 0.77 10.39 C1.6 7.33, 4.08 4.25, 6.74 2.58 C9.39 0.91, 14.91 0.71, 16.68 0.35 C18.45 -0.01, 17.49 0.22, 17.37 0.41 M14.92 -0.73 C17.73 -0.85, 21.58 0.74, 23.93 3.03 C26.28 5.33, 28.41 9.82, 29.04 13.04 C29.67 16.25, 29.25 19.79, 27.71 22.31 C26.16 24.84, 22.75 27.25, 19.8 28.2 C16.84 29.14, 13.07 29.13, 9.97 27.96 C6.88 26.8, 2.9 23.82, 1.23 21.2 C-0.45 18.57, -0.69 15.15, -0.06 12.23 C0.58 9.31, 2.55 5.75, 5.02 3.68 C7.5 1.6, 13.04 0.28, 14.79 -0.22 C16.54 -0.72, 15.59 0.5, 15.53 0.66" stroke="#ffffff" stroke-width="1" fill="none"></path></g><g stroke-linecap="round"><g transform="translate(536.9871503497392 411.2550048427511) rotate(0 4.734683710163608 4.284067043628909)"><path d="M0.12 -0.2 C0.21 0.16, 0.07 1.55, 0.45 2.28 C0.82 3.02, 1.64 3.69, 2.39 4.19 C3.13 4.69, 4.66 4.54, 4.93 5.29 C5.19 6.03, 4.55 8.16, 3.98 8.66 C3.42 9.16, 0.95 8.27, 1.54 8.27 C2.13 8.27, 6.92 8.59, 7.51 8.66 C8.09 8.74, 5.53 9.25, 5.05 8.71 C4.57 8.18, 4.33 6.11, 4.64 5.45 C4.95 4.79, 6.16 5.26, 6.91 4.76 C7.66 4.27, 8.69 3.27, 9.14 2.47 C9.6 1.67, 9.59 0.45, 9.63 -0.05 M-0.24 0.46 C-0.19 0.86, -0.22 2, 0.18 2.66 C0.57 3.32, 1.31 3.94, 2.13 4.43 C2.95 4.92, 4.72 4.87, 5.11 5.61 C5.51 6.35, 5.02 8.32, 4.47 8.86 C3.93 9.4, 1.48 8.8, 1.87 8.87 C2.25 8.94, 6.26 9.3, 6.76 9.28 C7.27 9.26, 5.33 9.43, 4.9 8.73 C4.47 8.04, 3.83 5.79, 4.17 5.14 C4.51 4.48, 6.11 5.19, 6.95 4.8 C7.79 4.41, 8.82 3.61, 9.21 2.8 C9.6 1.98, 9.26 0.35, 9.3 -0.1" stroke="#ffffff" stroke-width="1" fill="none"></path></g></g><mask></mask><g stroke-linecap="round"><g transform="translate(538.7653817558188 409.4732644740275) rotate(0 2.976546092008107 0.13737905040039777)" fill-rule="evenodd"><path d="M-0.04 -1.37 C-0.33 -0.86, -0.57 0.59, -0.37 1.78 C-0.16 2.97, 0.51 5.21, 1.19 5.77 C1.87 6.33, 3.01 5.47, 3.74 5.14 C4.47 4.81, 5.04 4.4, 5.57 3.79 C6.1 3.18, 7.02 2.66, 6.9 1.49 C6.77 0.33, 5.23 -2.46, 4.82 -3.22 C4.41 -3.99, 4.85 -2.98, 4.43 -3.11 C4.01 -3.24, 2.9 -3.77, 2.33 -4.01 C1.75 -4.24, 1.16 -4.92, 1 -4.53 C0.84 -4.15, 1.68 -2.23, 1.36 -1.71 C1.04 -1.18, -0.9 -1.73, -0.9 -1.38" stroke="none" stroke-width="0" fill="#ffffff" fill-rule="evenodd"></path><path d="M0.02 -0.14 C0.05 0.32, 0.02 1.77, 0.3 2.56 C0.58 3.34, 1.3 4.14, 1.69 4.58 C2.08 5.02, 2.12 5.28, 2.64 5.21 C3.15 5.14, 4.19 4.67, 4.77 4.16 C5.35 3.66, 5.89 3.17, 6.13 2.17 C6.38 1.16, 6.43 -0.91, 6.26 -1.87 C6.08 -2.83, 5.66 -3.14, 5.08 -3.57 C4.49 -3.99, 3.4 -4.35, 2.76 -4.43 C2.12 -4.51, 1.62 -4.42, 1.23 -4.05 C0.84 -3.68, 0.65 -2.84, 0.44 -2.22 C0.22 -1.6, 0.02 -0.69, -0.06 -0.32 M-0.4 -0.52 C-0.43 -0.01, -0.34 1.95, -0.01 2.86 C0.32 3.78, 1.15 4.69, 1.58 4.97 C2.01 5.25, 1.94 4.69, 2.56 4.54 C3.18 4.4, 4.81 4.57, 5.32 4.11 C5.83 3.65, 5.58 2.84, 5.61 1.8 C5.65 0.76, 5.66 -1.25, 5.53 -2.14 C5.39 -3.04, 5.19 -3.15, 4.79 -3.57 C4.4 -3.99, 3.72 -4.56, 3.16 -4.66 C2.6 -4.76, 1.85 -4.62, 1.43 -4.15 C1 -3.68, 0.93 -2.62, 0.61 -1.85 C0.29 -1.08, -0.41 0.2, -0.51 0.47" stroke="#ffffff" stroke-width="1" fill="none"></path></g></g><mask></mask><g stroke-linecap="round" transform="translate(328.9782748502023 304.72951519432957) rotate(0 85.18535722679582 16.33145329916789)"><path d="M-1.45 1.4 L169.55 1.84 L171.84 34.62 L0.48 32.2" stroke="none" stroke-width="0" fill="#ffffff"></path><path d="M0 0 C68.8 -2.02, 136.43 1.07, 170.37 0 M0 0 C46.87 1.2, 93.98 0.07, 170.37 0 M170.37 0 C171.94 5.9, 171.21 14.89, 170.37 32.66 M170.37 0 C169.69 10.45, 170.94 21.57, 170.37 32.66 M170.37 32.66 C108.44 31.92, 47.55 34.95, 0 32.66 M170.37 32.66 C112 34.95, 53.11 34.02, 0 32.66 M0 32.66 C1.97 25.91, -1.4 16.38, 0 0 M0 32.66 C0.34 20.36, -0.98 8.16, 0 0" stroke="#1e1e1e" stroke-width="2" fill="none"></path></g><g transform="translate(334.7656945869985 307.9823085006935) rotate(0 83.37131933122538 12.696093904174376)"><text x="0" y="10.157090749934337" font-family="Helvetica, Segoe UI Emoji" font-size="11.040081655803801px" fill="#1e1e1e" text-anchor="start" style="white-space: pre;" direction="ltr" dominant-baseline="alphabetic">Бот помогает учить сербский</text><text x="0" y="22.85318465410871" font-family="Helvetica, Segoe UI Emoji" font-size="11.040081655803801px" fill="#1e1e1e" text-anchor="start" style="white-space: pre;" direction="ltr" dominant-baseline="alphabetic">язык, используя flash cards</text></g><g stroke-linecap="round" transform="translate(330.8340858355465 368.7645033883677) rotate(0 81.58468874686139 11.271929874512097)"><path d="M-0.91 1.2 L162.26 0.48 L162.08 21.92 L1.02 22.24" stroke="none" stroke-width="0" fill="#69db7c"></path><path d="M0 0 C58.82 0.2, 119.78 -0.43, 163.17 0 M0 0 C38.2 1.62, 77.05 1.02, 163.17 0 M163.17 0 C163.92 8.04, 163.83 14.82, 163.17 22.54 M163.17 0 C162.78 5.86, 163.97 10.21, 163.17 22.54 M163.17 22.54 C125.89 20.98, 85.41 23.75, 0 22.54 M163.17 22.54 C114.37 23.88, 65.12 23.98, 0 22.54 M0 22.54 C0.3 18.28, 0.11 9.62, 0 0 M0 22.54 C-0.88 16.67, -0.07 12.65, 0 0" stroke="#2f9e44" stroke-width="2" fill="none"></path></g><g transform="translate(332.24191297398147 375.1277310701271) rotate(0 80.06791274388382 5.049294305418812)"><text x="80.06791274388385" y="8.079042400025621" font-family="Helvetica, Segoe UI Emoji" font-size="8.78138140072841px" fill="#ffffff" text-anchor="middle" style="white-space: pre;" direction="ltr" dominant-baseline="alphabetic">Подробная справка</text></g><g stroke-linecap="round" transform="translate(330.31086796363604 342.61018710039133) rotate(0 39.86245481481632 11.271929874512068)"><path d="M1.26 0.36 L80.43 0.91 L80.21 23.1 L1.01 23.67" stroke="none" stroke-width="0" fill="#69db7c"></path><path d="M0 0 C23.26 1.79, 43.77 2.07, 79.72 0 M0 0 C28.37 -1.24, 56.34 -0.64, 79.72 0 M79.72 0 C79.31 6.74, 80.89 11.92, 79.72 22.54 M79.72 0 C80.29 4.93, 79.83 11.53, 79.72 22.54 M79.72 22.54 C63.59 22.32, 46.87 21.59, 0 22.54 M79.72 22.54 C48.04 22.24, 17.2 22.83, 0 22.54 M0 22.54 C0.18 14.83, 0.85 8.56, 0 0 M0 22.54 C0.7 16.63, -0.08 12.76, 0 0" stroke="#2f9e44" stroke-width="2" fill="none"></path></g><g stroke-linecap="round" transform="translate(414.70799603473745 342.34402436622014) rotate(0 39.862454814816374 11.271929874512068)"><path d="M1.75 0.31 L78.88 -0.33 L81.12 21.39 L1.12 20.76" stroke="none" stroke-width="0" fill="#69db7c"></path><path d="M0 0 C14.59 2.66, 31.63 1.07, 79.72 0 M0 0 C26.4 1.47, 52.41 1.38, 79.72 0 M79.72 0 C80.44 6.94, 79.83 16.26, 79.72 22.54 M79.72 0 C80.09 8.31, 79.46 15.17, 79.72 22.54 M79.72 22.54 C57.43 20.76, 36.21 24.02, 0 22.54 M79.72 22.54 C57 22.84, 34.84 22.33, 0 22.54 M0 22.54 C-0.07 16.14, 0.76 8.65, 0 0 M0 22.54 C0.45 15.08, -0.81 7.81, 0 0" stroke="#2f9e44" stroke-width="2" fill="none"></path></g><g transform="translate(334.6489036461827 348.77519246194544) rotate(0 36.18642909893276 5.04929430541884)"><text x="36.18642909893277" y="8.079042400025621" font-family="Helvetica, Segoe UI Emoji" font-size="8.78138140072841px" fill="#ffffff" text-anchor="middle" style="white-space: pre;" direction="ltr" dominant-baseline="alphabetic">Учить карточки</text></g><g transform="translate(419.22387789201855 348.7410932560869) rotate(0 35.478919408009006 5.04929430541884)"><text x="35.47891940800896" y="8.079042400025621" font-family="Helvetica, Segoe UI Emoji" font-size="8.78138140072841px" fill="#ffffff" text-anchor="middle" style="white-space: pre;" direction="ltr" dominant-baseline="alphabetic">Статистика</text></g><g stroke-linecap="round" transform="translate(10.985885526111929 225.7195977427143) rotate(0 118.7196388586492 193.7861209977974)"><path d="M1.79 -1.31 L238.67 0.71 L236.1 386.96 L-0.78 386.44" stroke="none" stroke-width="0" fill="#b2f2bb"></path><path d="M0 0 C90.44 1.53, 177.92 0.87, 237.44 0 M0 0 C66.13 0.57, 133.95 1.01, 237.44 0 M237.44 0 C238.28 121.44, 238.08 242.7, 237.44 387.57 M237.44 0 C235.8 131.81, 236.64 263.57, 237.44 387.57 M237.44 387.57 C179.8 385.92, 118.59 387.08, 0 387.57 M237.44 387.57 C186.49 388.42, 134.4 389.47, 0 387.57 M0 387.57 C1.74 265.58, 0.62 142.9, 0 0 M0 387.57 C1.75 242.09, 1.28 95.24, 0 0" stroke="transparent" stroke-width="2" fill="none"></path></g><g stroke-linecap="round" transform="translate(10.08945772968957 189.0239948002049) rotate(0 119.70708688985974 212.16493502688584)"><path d="M0 0 C70.91 -0.95, 141.92 -1.32, 239.41 0 M0 0 C65.04 0.46, 129.83 0.59, 239.41 0 M239.41 0 C237.25 109.48, 238.48 216.85, 239.41 424.33 M239.41 0 C238.86 165.87, 238.07 330.63, 239.41 424.33 M239.41 424.33 C176.41 423.71, 114.75 423.62, 0 424.33 M239.41 424.33 C153.33 424.37, 68.34 422.99, 0 424.33 M0 424.33 C-1.03 260.18, 0.77 96.15, 0 0 M0 424.33 C-0.78 289.89, 0 155.53, 0 0" stroke="#1e1e1e" stroke-width="2" fill="none"></path></g><g stroke-linecap="round" transform="translate(10 190.28655978866084) rotate(0 119.48931252238748 17.09883449293153)"><path d="M0 0 C92.42 -0.53, 184.98 -2.48, 238.98 0 M0 0 C71.48 -0.47, 142.4 -1.54, 238.98 0 M238.98 0 C239.5 10.52, 240.51 22.48, 238.98 34.2 M238.98 0 C238.78 11.88, 238.88 24.81, 238.98 34.2 M238.98 34.2 C177.43 34.87, 119.64 35.26, 0 34.2 M238.98 34.2 C175.89 35.36, 113.27 36.01, 0 34.2 M0 34.2 C1.86 22.23, 0.65 13.55, 0 0 M0 34.2 C1.1 20.03, 0.82 7.52, 0 0" stroke="#1e1e1e" stroke-width="2" fill="none"></path></g><g stroke-linecap="round"><g transform="translate(37.13289345963665 206.5213547442952) rotate(0 -8.69478355120657 -0.1812652541211719)"><path d="M0 0 C-6.31 -0.89, -12.13 -0.05, -17.39 -0.36 M0 0 C-6.31 -0.33, -12.06 -0.53, -17.39 -0.36" stroke="#1e1e1e" stroke-width="2" fill="none"></path></g><g transform="translate(37.13289345963665 206.5213547442952) rotate(0 -8.69478355120657 -0.1812652541211719)"><path d="M-9.25 -3.44 C-12.22 -2.75, -14.93 -1.19, -17.39 -0.36 M-9.25 -3.44 C-12.21 -2.46, -14.89 -1.41, -17.39 -0.36" stroke="#1e1e1e" stroke-width="2" fill="none"></path></g><g transform="translate(37.13289345963665 206.5213547442952) rotate(0 -8.69478355120657 -0.1812652541211719)"><path d="M-9.18 2.51 C-12.17 1.13, -14.91 0.61, -17.39 -0.36 M-9.18 2.51 C-12.17 1.4, -14.87 0.35, -17.39 -0.36" stroke="#1e1e1e" stroke-width="2" fill="none"></path></g></g><mask></mask><g stroke-linecap="round" transform="translate(47.51930377733936 193.24780405857507) rotate(0 14.22264820584195 13.31613567288997)"><path d="M15.3 -0.2 C18.11 -0.2, 21.51 1.75, 23.62 3.79 C25.73 5.83, 27.49 9.29, 27.95 12.04 C28.4 14.79, 27.87 17.97, 26.35 20.27 C24.83 22.56, 21.74 24.85, 18.83 25.81 C15.93 26.78, 11.73 27.18, 8.93 26.06 C6.13 24.94, 3.48 21.76, 2.03 19.1 C0.59 16.44, -0.39 12.89, 0.27 10.11 C0.93 7.33, 3.54 4.1, 5.99 2.44 C8.43 0.78, 13.39 0.48, 14.94 0.15 C16.49 -0.19, 15.19 0.18, 15.29 0.42 M13.08 -0.51 C16.12 -1.03, 20.52 0.8, 23.01 2.41 C25.5 4.02, 27.38 6.3, 28.02 9.15 C28.65 12, 28.19 16.78, 26.81 19.5 C25.43 22.23, 22.4 24.27, 19.72 25.5 C17.04 26.73, 13.65 27.7, 10.72 26.9 C7.79 26.09, 3.8 23.2, 2.14 20.66 C0.47 18.13, 0.31 14.43, 0.73 11.69 C1.14 8.94, 2.66 6.16, 4.61 4.18 C6.57 2.2, 11.11 0.54, 12.46 -0.18 C13.81 -0.89, 12.5 -0.46, 12.69 -0.11" stroke="#1e1e1e" stroke-width="2" fill="none"></path></g><g transform="translate(86.49857168419396 198.2011168657903) rotate(0 45.75996398925781 10)"><text x="0" y="14.016" font-family="Virgil, Segoe UI Emoji" font-size="16px" fill="#1e1e1e" text-anchor="start" style="white-space: pre;" direction="ltr" dominant-baseline="alphabetic">VlandivirBot</text></g><g stroke-linecap="round" transform="translate(17.123105136961954 580.6624411627706) rotate(0 95.7656304473769 13.290733460747617)"><path d="M-0.32 0.11 L192.4 0.54 L193.42 27.39 L0.65 26.24" stroke="none" stroke-width="0" fill="#ffffff"></path><path d="M0 0 C62.81 -1.11, 121.7 0.62, 191.53 0 M0 0 C41.96 0.14, 84.64 -0.22, 191.53 0 M191.53 0 C191.4 9.69, 193.1 20.12, 191.53 26.58 M191.53 0 C191.74 6.36, 191.97 11.22, 191.53 26.58 M191.53 26.58 C143.81 28.59, 99.15 27.03, 0 26.58 M191.53 26.58 C151.35 28.22, 112.81 29.01, 0 26.58 M0 26.58 C-1.2 21.41, 0.82 12.45, 0 0 M0 26.58 C0.83 20.13, -0.27 12.03, 0 0" stroke="#1e1e1e" stroke-width="2" fill="none"></path></g><g stroke-linecap="round" transform="translate(212.39892555307335 576.1130704782399) rotate(0 17.328071210277585 16.423439941923732)"><path d="M18.41 0.12 C21.9 0.19, 26.5 2.31, 29.16 4.7 C31.81 7.1, 33.97 10.98, 34.34 14.49 C34.7 18, 33.37 22.85, 31.33 25.77 C29.29 28.68, 25.73 31, 22.12 31.98 C18.52 32.95, 13.06 33.1, 9.7 31.61 C6.35 30.13, 3.56 26.35, 1.97 23.08 C0.38 19.81, -0.69 15.35, 0.16 11.98 C1.01 8.6, 3.78 4.79, 7.08 2.83 C10.38 0.87, 17.67 0.6, 19.96 0.24 C22.24 -0.11, 20.75 0.44, 20.77 0.68 M20.25 0.52 C23.64 0.79, 27.24 2.8, 29.76 5.46 C32.28 8.12, 35.17 13.02, 35.37 16.49 C35.57 19.96, 33.33 23.65, 30.96 26.3 C28.59 28.96, 24.78 31.71, 21.14 32.41 C17.49 33.11, 12.43 32.27, 9.09 30.5 C5.76 28.74, 2.6 25.01, 1.13 21.82 C-0.33 18.62, -0.9 14.46, 0.29 11.3 C1.49 8.15, 4.98 4.77, 8.31 2.88 C11.64 0.99, 18.42 0.42, 20.26 -0.03 C22.1 -0.47, 19.55 0.01, 19.34 0.21" stroke="none" stroke-width="0" fill="#a5d8ff"></path><path d="M19.37 -0.21 C23.04 -0.16, 27.68 2.13, 30.26 4.8 C32.85 7.47, 34.62 12.29, 34.88 15.79 C35.14 19.3, 34.06 23.11, 31.81 25.84 C29.56 28.57, 25.02 31.31, 21.39 32.15 C17.76 33, 13.42 32.43, 10.03 30.93 C6.64 29.43, 2.7 26.34, 1.07 23.18 C-0.56 20.02, -0.89 15.31, 0.26 11.94 C1.41 8.58, 4.76 5, 7.95 2.98 C11.14 0.97, 17.33 0.24, 19.4 -0.15 C21.48 -0.55, 20.46 0.2, 20.39 0.59 M17.1 0.58 C20.53 0.52, 25.08 1.72, 27.99 4.02 C30.91 6.31, 33.92 10.97, 34.56 14.36 C35.21 17.76, 33.63 21.56, 31.85 24.4 C30.06 27.24, 27.19 30.11, 23.85 31.39 C20.51 32.68, 15.46 33.27, 11.78 32.1 C8.11 30.92, 3.75 27.51, 1.78 24.34 C-0.19 21.17, -0.85 16.4, -0.02 13.07 C0.82 9.73, 3.94 6.53, 6.8 4.32 C9.66 2.11, 15.38 0.48, 17.13 -0.18 C18.88 -0.83, 17.19 0.03, 17.29 0.37" stroke="transparent" stroke-width="2" fill="none"></path></g><g stroke-opacity="0" fill-opacity="0" stroke-linecap="round" transform="translate(215.7039489058743 581.241255260145) rotate(0 14.685479158985345 14.685479158985345)"><path d="M13.82 -0.03 C16.81 -0.4, 20.99 0.77, 23.48 2.71 C25.98 4.66, 28.07 8.54, 28.8 11.64 C29.53 14.73, 29.36 18.48, 27.86 21.3 C26.36 24.12, 22.69 27.4, 19.79 28.57 C16.89 29.73, 13.44 29.34, 10.45 28.28 C7.46 27.21, 3.59 24.82, 1.83 22.18 C0.08 19.54, -0.6 15.5, -0.08 12.45 C0.44 9.39, 2.51 5.92, 4.95 3.84 C7.4 1.76, 12.81 0.6, 14.61 -0.01 C16.41 -0.63, 15.68 -0.13, 15.75 0.15 M13.99 0 C17.02 -0.19, 22.16 1.95, 24.68 3.89 C27.2 5.84, 28.6 8.68, 29.12 11.66 C29.63 14.63, 29.31 19.03, 27.76 21.75 C26.22 24.48, 22.85 26.99, 19.85 28.01 C16.85 29.02, 12.81 28.8, 9.76 27.84 C6.7 26.87, 3.08 24.73, 1.51 22.21 C-0.07 19.7, -0.36 15.89, 0.31 12.75 C0.99 9.62, 3.26 5.56, 5.56 3.39 C7.85 1.21, 12.67 0.34, 14.07 -0.28 C15.47 -0.9, 13.95 -0.67, 13.96 -0.31" stroke="none" stroke-width="0" fill="#ffffff"></path><path d="M17.69 -0.01 C20.68 0.45, 24.18 3.33, 26.2 5.73 C28.23 8.14, 29.92 11.4, 29.85 14.43 C29.79 17.46, 27.88 21.5, 25.84 23.92 C23.79 26.33, 20.71 28.31, 17.56 28.91 C14.41 29.51, 9.78 29.03, 6.93 27.51 C4.08 25.98, 1.42 22.72, 0.46 19.78 C-0.49 16.84, 0.06 12.87, 1.17 9.85 C2.29 6.83, 4.36 3.25, 7.17 1.67 C9.98 0.09, 16.31 0.46, 18.03 0.36 C19.75 0.26, 17.6 0.84, 17.47 1.08 M10.73 0.53 C13.68 -0.33, 18.58 0.93, 21.41 2.26 C24.24 3.6, 26.37 5.85, 27.71 8.53 C29.05 11.22, 30.18 15.27, 29.44 18.38 C28.69 21.49, 26.06 25.43, 23.24 27.2 C20.42 28.98, 15.76 29.52, 12.51 29.05 C9.26 28.57, 5.72 26.52, 3.73 24.36 C1.74 22.2, 0.76 19.2, 0.57 16.1 C0.39 13, 0.85 8.37, 2.61 5.76 C4.37 3.16, 9.64 1.26, 11.15 0.45 C12.66 -0.37, 11.47 0.61, 11.66 0.89" stroke="#ffffff" stroke-width="1" fill="none"></path></g><g stroke-linecap="round"><g transform="translate(225.04205008896588 590.278999642956) rotate(0 4.7346837101635515 4.284067043628909)"><path d="M0.25 0.14 C0.26 0.64, -0.12 1.99, 0.22 2.75 C0.56 3.5, 1.48 4.18, 2.28 4.66 C3.09 5.14, 4.75 5, 5.05 5.63 C5.35 6.25, 4.67 7.89, 4.09 8.42 C3.51 8.95, 1.07 8.82, 1.56 8.83 C2.06 8.84, 6.52 8.6, 7.06 8.49 C7.61 8.38, 5.22 8.68, 4.82 8.18 C4.42 7.67, 4.23 6.11, 4.66 5.46 C5.09 4.82, 6.68 4.76, 7.4 4.3 C8.12 3.84, 8.63 3.52, 8.99 2.72 C9.34 1.92, 9.39 0.01, 9.52 -0.48 M-0.05 -0.1 C0.06 0.34, 0.57 1.59, 0.9 2.29 C1.24 2.98, 1.42 3.61, 1.97 4.07 C2.52 4.53, 3.78 4.31, 4.22 5.05 C4.67 5.79, 5.02 7.9, 4.64 8.5 C4.25 9.1, 1.48 8.56, 1.9 8.64 C2.32 8.73, 6.72 8.96, 7.16 9.02 C7.61 9.08, 5.05 9.64, 4.56 9 C4.06 8.36, 3.67 5.98, 4.19 5.16 C4.72 4.35, 6.9 4.61, 7.69 4.1 C8.49 3.59, 8.73 2.91, 8.98 2.1 C9.22 1.29, 8.97 -0.32, 9.14 -0.74" stroke="#ffffff" stroke-width="1" fill="none"></path></g></g><mask></mask><g stroke-linecap="round"><g transform="translate(226.8202814950455 588.4972592742324) rotate(0 2.976546092008107 0.13737905040039777)" fill-rule="evenodd"><path d="M-0.99 0.23 C-0.79 0.74, 0.39 3.53, 0.66 4.16 C0.93 4.79, 0.05 4.02, 0.64 4.01 C1.23 4.01, 3.32 3.97, 4.18 4.13 C5.04 4.29, 5.67 5.36, 5.8 4.98 C5.92 4.6, 5 3.18, 4.93 1.86 C4.87 0.55, 5.22 -2.12, 5.41 -2.9 C5.6 -3.67, 6.52 -2.41, 6.05 -2.78 C5.58 -3.14, 3.43 -4.88, 2.6 -5.09 C1.76 -5.3, 1.35 -4.56, 1.06 -4.04 C0.77 -3.53, 0.84 -2.77, 0.88 -2.01 C0.92 -1.24, 1.39 0.27, 1.32 0.56" stroke="none" stroke-width="0" fill="#ffffff" fill-rule="evenodd"></path><path d="M-0.21 0.32 C-0.22 0.8, -0.14 2.26, 0.2 3.03 C0.53 3.8, 1.38 4.6, 1.81 4.92 C2.23 5.25, 2.25 5, 2.74 4.97 C3.24 4.93, 4.3 5.22, 4.79 4.72 C5.29 4.23, 5.48 3.18, 5.69 2 C5.9 0.81, 6.13 -1.48, 6.03 -2.41 C5.93 -3.33, 5.55 -3.14, 5.09 -3.55 C4.63 -3.96, 3.92 -4.85, 3.25 -4.89 C2.58 -4.93, 1.56 -4.17, 1.07 -3.8 C0.59 -3.43, 0.46 -3.28, 0.33 -2.65 C0.2 -2.02, 0.36 -0.38, 0.31 0.01 M0.32 0.17 C0.23 0.54, -0.41 1.8, -0.17 2.5 C0.07 3.21, 1.28 3.95, 1.76 4.41 C2.24 4.87, 2.12 5.17, 2.72 5.26 C3.32 5.35, 4.81 5.39, 5.36 4.95 C5.91 4.51, 5.87 3.75, 6.02 2.62 C6.17 1.48, 6.45 -0.85, 6.25 -1.88 C6.05 -2.91, 5.39 -3.15, 4.82 -3.55 C4.25 -3.95, 3.43 -4.25, 2.83 -4.29 C2.23 -4.32, 1.59 -4.07, 1.19 -3.77 C0.8 -3.47, 0.64 -3.11, 0.45 -2.5 C0.26 -1.89, 0.1 -0.58, 0.05 -0.11" stroke="#ffffff" stroke-width="1" fill="none"></path></g></g><mask></mask><g stroke-linecap="round"><g transform="translate(332.5386809890789 354.8493825335639) rotate(0 -71.41836983816967 -123.74041421072822)"><path d="M0.51 -1.2 C-11.75 -42.65, -48.94 -220.06, -72.82 -248.36 C-96.7 -276.67, -131.12 -183.98, -142.76 -171.01 M-0.68 0.79 C-13.07 -40.56, -49.44 -218.82, -73.24 -247.29 C-97.04 -275.77, -131.97 -183, -143.48 -170.05" stroke="#f08c00" stroke-width="2" fill="none"></path></g><g transform="translate(332.5386809890789 354.8493825335639) rotate(0 -71.41836983816967 -123.74041421072822)"><path d="M-139.33 -194.71 C-142.75 -184.12, -143.73 -176.77, -143.48 -170.05 M-139.33 -194.71 C-140.34 -188.1, -141.27 -182.43, -143.48 -170.05" stroke="#f08c00" stroke-width="2" fill="none"></path></g><g transform="translate(332.5386809890789 354.8493825335639) rotate(0 -71.41836983816967 -123.74041421072822)"><path d="M-124.45 -186.27 C-133.26 -178.66, -139.61 -174.36, -143.48 -170.05 M-124.45 -186.27 C-129.08 -181.74, -133.63 -178.12, -143.48 -170.05" stroke="#f08c00" stroke-width="2" fill="none"></path></g></g><mask></mask></svg>